<svg xmlns="http://www.w3.org/2000/svg" xmlns:xlink="http://www.w3.org/1999/xlink" width="20" height="20" viewBox="0 0 20 20" fill="none"><g opacity="1" transform="translate(0 0)  rotate(0 10 10)"><path id="减去顶层" fill-rule="evenodd" style="fill:#B71C1C" transform="translate(2 2)  rotate(0 8 8)" opacity="1" d="M0 8C0 3.58 3.58 0 8 0C12.42 0 16 3.58 16 8C16 12.42 12.42 16 8 16C3.58 16 0 12.42 0 8Z M11.5638 5.03015C11.578 5.07258 11.585 5.12208 11.578 5.17157C11.585 5.22107 11.578 5.27057 11.5638 5.31299C11.5567 5.36249 11.5355 5.41199 11.5214 5.45442C11.5002 5.50391 11.479 5.55341 11.4578 5.58877C11.4295 5.63119 11.3941 5.66655 11.3588 5.7019L9.06066 8L11.3588 10.2981C11.3941 10.3335 11.4295 10.3688 11.4578 10.4112C11.479 10.4466 11.5002 10.4961 11.5214 10.5456C11.5355 10.588 11.5567 10.6375 11.5638 10.687C11.578 10.7294 11.585 10.7789 11.578 10.8284C11.585 10.8779 11.578 10.9274 11.5638 10.9698C11.5567 11.0193 11.5355 11.0688 11.5214 11.1113C11.5002 11.1608 11.479 11.2103 11.4578 11.2456C11.4295 11.288 11.3941 11.3234 11.3588 11.3588C11.3234 11.3941 11.288 11.4295 11.2456 11.4578C11.2103 11.479 11.1608 11.5002 11.1113 11.5214C11.0688 11.5355 11.0193 11.5567 10.9698 11.5638C10.9274 11.578 10.8779 11.585 10.8284 11.578C10.7789 11.585 10.7294 11.578 10.687 11.5638C10.6375 11.5567 10.588 11.5355 10.5456 11.5214C10.4961 11.5002 10.4466 11.479 10.4112 11.4578C10.3688 11.4295 10.3335 11.3941 10.2981 11.3588L8 9.06066L5.7019 11.3588C5.66655 11.3941 5.63119 11.4295 5.58877 11.4578C5.55341 11.479 5.50391 11.5002 5.45442 11.5214C5.41199 11.5355 5.36249 11.5567 5.31299 11.5638C5.27057 11.578 5.22107 11.585 5.17157 11.578C5.12208 11.585 5.07258 11.578 5.03015 11.5638C4.98065 11.5567 4.93116 11.5355 4.88873 11.5214C4.83923 11.5002 4.78974 11.479 4.75438 11.4578C4.71195 11.4295 4.6766 11.3941 4.64124 11.3588C4.60589 11.3234 4.57053 11.288 4.54225 11.2456C4.52103 11.2103 4.49982 11.1608 4.47861 11.1113C4.46447 11.0688 4.44325 11.0193 4.43618 10.9698C4.42204 10.9274 4.41497 10.8779 4.42204 10.8284C4.41497 10.7789 4.42204 10.7294 4.43618 10.687C4.44325 10.6375 4.46447 10.588 4.47861 10.5456C4.49982 10.4961 4.52103 10.4466 4.54225 10.4112C4.57053 10.3688 4.60589 10.3335 4.64124 10.2981L6.93934 8L4.64124 5.7019C4.60589 5.66655 4.57053 5.63119 4.54225 5.58877C4.52103 5.55341 4.49982 5.50391 4.47861 5.45442C4.46447 5.41199 4.44325 5.36249 4.43618 5.31299C4.42204 5.27057 4.41497 5.22107 4.42204 5.17157C4.41497 5.12208 4.42204 5.07258 4.43618 5.03015C4.44325 4.98065 4.46447 4.93116 4.47861 4.88873C4.49982 4.83923 4.52103 4.78974 4.54225 4.75438C4.57053 4.71195 4.60589 4.6766 4.64124 4.64124C4.6766 4.60589 4.71195 4.57053 4.75438 4.54225C4.78974 4.52103 4.83923 4.49982 4.88873 4.47861C4.93116 4.46447 4.98065 4.44325 5.03015 4.43618C5.07258 4.42204 5.12208 4.41497 5.17157 4.42204C5.22107 4.41497 5.27057 4.42204 5.31299 4.43618C5.36249 4.44325 5.41199 4.46447 5.45442 4.47861C5.50391 4.49982 5.55341 4.52103 5.58877 4.54225C5.63119 4.57053 5.66655 4.60589 5.7019 4.64124L8 6.93934L10.2981 4.64124C10.3335 4.60589 10.3688 4.57053 10.4112 4.54225C10.4466 4.52104 10.4961 4.49982 10.5456 4.47861C10.588 4.46447 10.6375 4.44325 10.687 4.43618C10.7294 4.42204 10.7789 4.41497 10.8284 4.42204C10.8779 4.41497 10.9274 4.42204 10.9698 4.43618C11.0193 4.44325 11.0688 4.46447 11.1113 4.47861C11.1608 4.49982 11.2103 4.52103 11.2456 4.54225C11.288 4.57053 11.3234 4.60589 11.3588 4.64124C11.3941 4.6766 11.4295 4.71195 11.4578 4.75438C11.479 4.78974 11.5002 4.83923 11.5214 4.88873C11.5355 4.93116 11.5567 4.98065 11.5638 5.03015Z " /></g></svg>