<svg xmlns="http://www.w3.org/2000/svg" xmlns:xlink="http://www.w3.org/1999/xlink" width="20" height="20" viewBox="0 0 20 20" fill="none"><g opacity="1" transform="translate(0 0)  rotate(0 10 10)"><path id="并集" fill-rule="evenodd" style="fill:#1976D2" transform="translate(4.375 2.5)  rotate(0 5.625 7.5)" opacity="1" d="M0.62 0L10.63 0C10.97 0 11.25 0.28 11.25 0.62C11.25 0.76 11.2 0.88 11.12 0.99L11.13 0.99L6.86 6.86L6.09 5.8L9.4 1.25L1.85 1.25L11.13 14.01L11.12 14.01C11.2 14.12 11.25 14.24 11.25 14.38C11.25 14.72 10.97 15 10.63 15L0.62 15C0.28 15 0 14.72 0 14.37C0 14.24 0.05 14.12 0.13 14.01L0.12 14.01L4.39 8.14L5.16 9.2L1.85 13.75L9.4 13.75L0.12 0.99L0.13 0.99C0.05 0.88 0 0.76 0 0.62C0 0.28 0.28 0 0.62 0ZM4.21 3.13L5.62 5.07L7.04 3.13L4.21 3.13ZM5.63 10L7.82 13L3.44 13L5.63 10Z" /></g></svg>