<svg xmlns="http://www.w3.org/2000/svg" xmlns:xlink="http://www.w3.org/1999/xlink" width="1em" height="1em"
     viewBox="0 0 20 20" fill="currentcolor">
    <g opacity="1" transform="translate(0 0)  rotate(0 10 10)">
        <path id="并集" fill-rule="evenodd" transform="translate(2.5 1.5)  rotate(0 7.5 8.5)"
              opacity="1"
              d="M7.75 16.93C7.71 16.96 7.67 16.97 7.63 16.98C7.59 16.99 7.55 17 7.51 17L7.5 17C7.41 17 7.33 16.98 7.25 16.93L0.25 12.93C0.21 12.91 0.18 12.89 0.15 12.85C0.12 12.82 0.09 12.79 0.07 12.75C0.05 12.71 0.03 12.67 0.02 12.63C0.01 12.59 0 12.54 0 12.5L0 4.49C0 4.45 0.01 4.41 0.02 4.37C0.03 4.33 0.04 4.29 0.07 4.25C0.07 4.25 0.07 4.24 0.08 4.23C0.12 4.16 0.18 4.11 0.25 4.07L7.25 0.07C7.29 0.04 7.33 0.03 7.37 0.02C7.41 0.01 7.46 0 7.5 0C7.54 0 7.59 0.01 7.63 0.02C7.67 0.03 7.71 0.04 7.75 0.07L14.75 4.07C14.83 4.11 14.89 4.17 14.93 4.25C14.98 4.32 15 4.4 15 4.49L15 12.5C15 12.54 14.99 12.59 14.98 12.63C14.97 12.67 14.95 12.71 14.93 12.75C14.91 12.79 14.88 12.82 14.85 12.85C14.82 12.89 14.79 12.91 14.75 12.93L7.75 16.93Z M7.7482 7.77829L13.49 4.5L7.5 1.08L1.51 4.5L7.2482 7.77623L7.2482 7.5L7.7482 7.5L7.7482 7.77829Z M7.5 3.5C7.09 3.5 6.75 3.84 6.75 4.25C6.75 4.57195 6.95964 4.85073 7.2482 4.95563L7.2482 5.5L7.7482 5.5L7.7482 4.95693C8.03861 4.85305 8.25 4.57328 8.25 4.25C8.25 3.84 7.91 3.5 7.5 3.5Z M7 9.02516L7 15.64L1 12.21L1 5.36L6.70247 8.61991L6.0682 8.93L6.2982 9.38L7 9.02516Z M8 9.02934L8 15.64L14 12.21L14 5.36L8.29987 8.61858L8.5082 8.72L8.2782 9.17L8 9.02934Z M7.2482 7L7.2482 6L7.7482 6L7.7482 7L7.2482 7Z M9.6282 9.84L8.7282 9.39L8.9582 8.95L9.8482 9.39L9.6282 9.84Z M5.8482 9.61L4.9582 10.05L4.7282 9.61L5.6282 9.16L5.8482 9.61Z M11.0023 10.4418L10.9682 10.51L10.0682 10.07L10.2982 9.62L11.1515 10.0514C11.2891 9.86915 11.5073 9.75 11.75 9.75C12.16 9.75 12.5 10.09 12.5 10.5C12.5 10.91 12.16 11.25 11.75 11.25C11.34 11.25 11 10.91 11 10.5C11 10.4804 11.0008 10.461 11.0023 10.4418Z M3.75 9.75C3.34 9.75 3 10.09 3 10.5C3 10.91 3.34 11.25 3.75 11.25C4.16 11.25 4.5 10.91 4.5 10.5C4.5 10.4301 4.49013 10.3623 4.47172 10.2978L4.5082 10.28L4.2782 9.83L4.17317 9.8831C4.05223 9.79934 3.90619 9.75 3.75 9.75Z "/>
    </g>
</svg>
