<svg xmlns="http://www.w3.org/2000/svg" xmlns:xlink="http://www.w3.org/1999/xlink" width="1em" height="1em"
     viewBox="0 0 20 20" fill="currentcolor">
    <g opacity="1" transform="translate(0 0)  rotate(0 10 10)">
        <path id="并集" fill-rule="evenodd" transform="translate(1.5 1.5)  rotate(0 8.5 8.5)"
              opacity="1"
              d="M7 1.5C7 1.09 6.85 0.73 6.56 0.44C6.27 0.15 5.91 0 5.5 0L1.5 0C1.09 0 0.73 0.15 0.44 0.44C0.15 0.73 0 1.09 0 1.5L0 3.5C0 3.91 0.15 4.27 0.44 4.56C0.73 4.85 1.09 5 1.5 5L5.5 5C5.91 5 6.27 4.85 6.56 4.56C6.85 4.27 7 3.91 7 3.5L7 2.9995L12.0824 2.9995C12.1549 3.20661 12.2747 3.39468 12.44 3.56C12.6051 3.72508 12.7928 3.8448 12.9996 3.9173L12.9996 10L11.5 10C11.09 10 10.73 10.15 10.44 10.44C10.15 10.73 10 11.09 10 11.5L10 12L4.91744 12C4.84495 11.7931 4.72519 11.6052 4.56 11.44C4.39481 11.2748 4.20691 11.155 4 11.0826L4 7L5.5 7C5.53 7 5.57 7 5.6 6.99L5.69 6.96C5.72 6.95 5.75 6.93 5.78 6.92C5.81 6.9 5.83 6.88 5.85 6.85C5.88 6.83 5.9 6.81 5.92 6.78C5.93 6.75 5.95 6.72 5.96 6.69L5.99 6.6C6 6.57 6 6.53 6 6.5C6 6.47 6 6.43 5.99 6.4L5.96 6.31C5.95 6.28 5.93 6.25 5.92 6.22C5.9 6.19 5.88 6.17 5.85 6.15C5.83 6.12 5.81 6.1 5.78 6.08C5.75 6.07 5.72 6.05 5.69 6.04L5.6 6.01C5.57 6 5.53 6 5.5 6L1.5 6C1.47 6 1.43 6 1.4 6.01L1.31 6.04C1.28 6.05 1.25 6.07 1.22 6.08C1.19 6.1 1.17 6.12 1.15 6.15C1.12 6.17 1.1 6.19 1.08 6.22C1.07 6.25 1.05 6.28 1.04 6.31L1.01 6.4C1 6.43 1 6.47 1 6.5C1 6.53 1 6.57 1.01 6.6L1.04 6.69C1.05 6.72 1.07 6.75 1.08 6.78C1.1 6.81 1.12 6.83 1.15 6.85C1.17 6.88 1.19 6.9 1.22 6.92C1.25 6.93 1.28 6.95 1.31 6.96L1.4 6.99C1.43 7 1.47 7 1.5 7L3 7L3 11.0826C2.79309 11.155 2.60519 11.2748 2.44 11.44C2.15 11.73 2 12.09 2 12.5C2 12.91 2.15 13.27 2.44 13.56C2.73 13.85 3.09 14 3.5 14C3.91 14 4.27 13.85 4.56 13.56C4.72519 13.3948 4.84495 13.2069 4.91744 13L10 13L10 13.5C10 13.91 10.15 14.27 10.44 14.56C10.73 14.85 11.09 15 11.5 15L15.5 15C15.91 15 16.27 14.85 16.56 14.56C16.85 14.27 17 13.91 17 13.5L17 11.5C17 11.09 16.85 10.73 16.56 10.44C16.27 10.15 15.91 10 15.5 10L13.9996 10L13.9996 3.91758C14.2067 3.8451 14.3947 3.72529 14.56 3.56C14.85 3.27 15 2.91 15 2.5C15 2.09 14.85 1.73 14.56 1.44C14.27 1.15 13.91 1 13.5 1C13.09 1 12.73 1.15 12.44 1.44C12.2749 1.60505 12.1552 1.79278 12.0827 1.9995L7 1.9995L7 1.5Z M1.5 1C1.36 1 1.25 1.05 1.15 1.15C1.05 1.25 1 1.36 1 1.5L1 3.5C1 3.64 1.05 3.75 1.15 3.85C1.25 3.95 1.36 4 1.5 4L5.5 4C5.64 4 5.75 3.95 5.85 3.85C5.95 3.75 6 3.64 6 3.5L6 1.5C6 1.36 5.95 1.25 5.85 1.15C5.75 1.05 5.64 1 5.5 1L1.5 1Z M13 2.5C13 2.64 13.05 2.75 13.15 2.85C13.25 2.95 13.36 3 13.5 3C13.64 3 13.75 2.95 13.85 2.85C13.95 2.75 14 2.64 14 2.5C14 2.36 13.95 2.25 13.85 2.15C13.75 2.05 13.64 2 13.5 2C13.36 2 13.25 2.05 13.15 2.15C13.05 2.25 13 2.36 13 2.5Z M11.15 13.85C11.25 13.95 11.36 14 11.5 14L15.5 14C15.64 14 15.75 13.95 15.85 13.85C15.95 13.75 16 13.64 16 13.5L16 11.5C16 11.36 15.95 11.25 15.85 11.15C15.75 11.05 15.64 11 15.5 11L11.5 11C11.36 11 11.25 11.05 11.15 11.15C11.05 11.25 11 11.36 11 11.5L11 13.5C11 13.64 11.05 13.75 11.15 13.85Z M3.15 12.15C3.05 12.25 3 12.36 3 12.5C3 12.64 3.05 12.75 3.15 12.85C3.25 12.95 3.36 13 3.5 13C3.64 13 3.75 12.95 3.85 12.85C3.95 12.75 4 12.64 4 12.5C4 12.36 3.95 12.25 3.85 12.15C3.75 12.05 3.64 12 3.5 12C3.36 12 3.25 12.05 3.15 12.15Z M15.6 16.01C15.57 16 15.53 16 15.5 16L11.5 16C11.47 16 11.43 16 11.4 16.01L11.31 16.04C11.28 16.05 11.25 16.07 11.22 16.08C11.19 16.1 11.17 16.12 11.15 16.15C11.12 16.17 11.1 16.19 11.08 16.22C11.07 16.25 11.05 16.28 11.04 16.31L11.01 16.4C11 16.43 11 16.47 11 16.5C11 16.53 11 16.57 11.01 16.6L11.04 16.69C11.05 16.72 11.07 16.75 11.08 16.78C11.1 16.81 11.12 16.83 11.15 16.85C11.17 16.88 11.19 16.9 11.22 16.92C11.25 16.93 11.28 16.95 11.31 16.96L11.4 16.99C11.43 17 11.47 17 11.5 17L15.5 17C15.53 17 15.57 17 15.6 16.99L15.69 16.96C15.72 16.95 15.75 16.93 15.78 16.92C15.81 16.9 15.83 16.88 15.85 16.85C15.88 16.83 15.9 16.81 15.92 16.78C15.93 16.75 15.95 16.72 15.96 16.69L15.99 16.6C16 16.57 16 16.53 16 16.5C16 16.47 16 16.43 15.99 16.4L15.96 16.31C15.95 16.28 15.93 16.25 15.92 16.22C15.9 16.19 15.88 16.17 15.85 16.15C15.83 16.12 15.81 16.1 15.78 16.08C15.75 16.07 15.72 16.05 15.69 16.04L15.6 16.01Z "/>
    </g>
</svg>
