<svg xmlns="http://www.w3.org/2000/svg" xmlns:xlink="http://www.w3.org/1999/xlink" width="1em" height="1em"
     viewBox="0 0 20 20" fill="currentcolor">
    <g opacity="1" transform="translate(0 0)  rotate(0 10 10)">
        <path id="并集" fill-rule="evenodd"
              transform="translate(1.5 1.4999999012975422)  rotate(0 8.539999961853027 8.5)" opacity="1"
              d="M12.3959 6.75C12.4159 6.71 12.4359 6.67 12.4459 6.63C12.4559 6.59 12.4659 6.54 12.4659 6.5L12.4659 2.5C12.4659 2.41 12.4459 2.33 12.3959 2.25C12.3559 2.17 12.2959 2.11 12.2159 2.07L8.7459 0.07C8.7059 0.04 8.6659 0.03 8.6259 0.02C8.5859 0.01 8.5359 0 8.4959 0C8.4559 0 8.4059 0.01 8.3659 0.02C8.3259 0.03 8.2859 0.05 8.2459 0.07L4.7859 2.07C4.7459 2.09 4.7159 2.12 4.6859 2.15C4.6559 2.18 4.6259 2.21 4.6059 2.25C4.5859 2.29 4.5659 2.33 4.5559 2.37C4.5459 2.41 4.5359 2.46 4.5359 2.5L4.5359 6.5C4.5359 6.54 4.5459 6.59 4.5559 6.63C4.5659 6.67 4.5859 6.71 4.6059 6.75C4.6259 6.79 4.6559 6.82 4.6859 6.85C4.7159 6.88 4.7459 6.91 4.7859 6.93L8.2459 8.93C8.3159 8.97 8.3959 9 8.4759 9L8.4959 9C8.5859 9 8.6659 8.98 8.7459 8.93L12.2159 6.93C12.2559 6.91 12.2859 6.88 12.3159 6.85C12.3459 6.82 12.3759 6.79 12.3959 6.75Z M8.1459 4.15C8.1759 4.12 8.2059 4.09 8.2459 4.07L10.9659 2.5L8.4959 1.08L5.5359 2.79L5.5359 6.21L7.9959 7.63L7.9959 4.5C7.9959 4.46 8.0059 4.41 8.0159 4.37C8.0259 4.33 8.0459 4.29 8.0659 4.25C8.0859 4.21 8.1159 4.18 8.1459 4.15Z M7.86 14.75C7.88 14.71 7.9 14.67 7.91 14.63C7.92 14.59 7.93 14.54 7.93 14.5L7.93 10.5C7.93 10.41 7.91 10.33 7.86 10.25C7.82 10.17 7.76 10.11 7.68 10.07L4.21 8.07C4.17 8.04 4.13 8.03 4.09 8.02C4.05 8.01 4 8 3.96 8C3.92 8 3.87 8.01 3.83 8.02C3.79 8.03 3.75 8.05 3.71 8.07L0.25 10.07C0.21 10.09 0.18 10.12 0.15 10.15C0.12 10.18 0.09 10.21 0.07 10.25C0.05 10.29 0.03 10.33 0.02 10.37C0.01 10.41 0 10.46 0 10.5L0 14.5C0 14.54 0.01 14.59 0.02 14.63C0.03 14.67 0.05 14.71 0.07 14.75C0.09 14.79 0.12 14.82 0.15 14.85C0.18 14.88 0.21 14.91 0.25 14.93L3.71 16.93C3.78 16.97 3.86 17 3.94 17L3.96 17C4.05 17 4.13 16.98 4.21 16.93L7.68 14.93C7.72 14.91 7.75 14.88 7.78 14.85C7.81 14.82 7.84 14.79 7.86 14.75Z M17.01 14.75C17.03 14.71 17.05 14.67 17.06 14.63C17.07 14.59 17.08 14.54 17.08 14.5L17.08 10.5C17.08 10.41 17.06 10.33 17.01 10.25C16.97 10.17 16.91 10.11 16.83 10.07L13.36 8.07C13.32 8.04 13.28 8.03 13.24 8.02C13.2 8.01 13.15 8 13.11 8C13.07 8 13.02 8.01 12.98 8.02C12.94 8.03 12.9 8.05 12.86 8.07L9.4 10.07C9.36 10.09 9.33 10.12 9.3 10.15C9.27 10.18 9.24 10.21 9.22 10.25C9.2 10.29 9.18 10.33 9.17 10.37C9.16 10.41 9.15 10.46 9.15 10.5L9.15 14.5C9.15 14.54 9.16 14.59 9.17 14.63C9.18 14.67 9.2 14.71 9.22 14.75C9.24 14.79 9.27 14.82 9.3 14.85C9.33 14.88 9.36 14.91 9.4 14.93L12.86 16.93C12.93 16.97 13.01 17 13.09 17L13.11 17C13.2 17 13.28 16.98 13.36 16.93L16.83 14.93C16.87 14.91 16.9 14.88 16.93 14.85C16.96 14.82 16.99 14.79 17.01 14.75Z M3.61 12.15C3.64 12.12 3.67 12.09 3.71 12.07L6.43 10.5L3.96 9.08L1 10.79L1 14.21L3.46 15.63L3.46 12.5C3.46 12.46 3.47 12.41 3.48 12.37C3.49 12.33 3.51 12.29 3.53 12.25C3.55 12.21 3.58 12.18 3.61 12.15Z M12.76 12.15C12.79 12.12 12.82 12.09 12.86 12.07L15.58 10.5L13.11 9.08L10.15 10.79L10.15 14.21L12.61 15.63L12.61 12.5C12.61 12.46 12.62 12.41 12.63 12.37C12.64 12.33 12.66 12.29 12.68 12.25C12.7 12.21 12.73 12.18 12.76 12.15Z "/>
    </g>
</svg>
