<svg xmlns="http://www.w3.org/2000/svg" xmlns:xlink="http://www.w3.org/1999/xlink" width="1em" height="1em"
     viewBox="0 0 20 20" fill="currentcolor">
    <g opacity="1" transform="translate(0 0)  rotate(0 10 10)">
        <path id="并集" fill-rule="evenodd" transform="translate(1.5 1.5)  rotate(0 8.5 8.5)"
              opacity="1"
              d="M16.56 16.56C16.27 16.85 15.91 17 15.5 17L1.5 17C1.09 17 0.73 16.85 0.44 16.56C0.15 16.27 0 15.91 0 15.5L0 1.5C0 1.09 0.15 0.73 0.44 0.44C0.73 0.15 1.09 0 1.5 0L15.5 0C15.91 0 16.27 0.15 16.56 0.44C16.85 0.73 17 1.09 17 1.5L17 15.5C17 15.91 16.85 16.27 16.56 16.56Z M1.15 15.85C1.05 15.75 1 15.64 1 15.5L1 1.5C1 1.36 1.05 1.25 1.15 1.15C1.25 1.05 1.36 1 1.5 1L15.5 1C15.64 1 15.75 1.05 15.85 1.15C15.95 1.25 16 1.36 16 1.5L16 15.5C16 15.64 15.95 15.75 15.85 15.85C15.75 15.95 15.64 16 15.5 16L1.5 16C1.36 16 1.25 15.95 1.15 15.85Z M4.5 3L3.5 3L3.5 2L4.5 2L4.5 3Z M6.5 3L5.5 3L5.5 2L6.5 2L6.5 3Z M8.5 3L7.5 3L7.5 2L8.5 2L8.5 3Z M10.5 3L9.5 3L9.5 2L10.5 2L10.5 3Z M12.5 3L11.5 3L11.5 2L12.5 2L12.5 3Z M13.5 2L14.5 2L14.5 3L13.5 3L13.5 2Z M2 2.5L3 2.5L3 3.5L2 3.5L2 2.5Z M15 3.5L15 4.5L14 4.5L14 3.5L15 3.5Z M3 4.5L3 5.5L2 5.5L2 4.5L3 4.5Z M14 6.5L14 5.5L15 5.5L15 6.5L14 6.5Z M3 6.5L3 7.5L2 7.5L2 6.5L3 6.5Z M15 7.5L15 8.5L14 8.5L14 7.5L15 7.5Z M3 9.5L2 9.5L2 8.5L3 8.5L3 9.5Z M14 10.5L14 9.5L15 9.5L15 10.5L14 10.5Z M3 10.5L3 11.5L2 11.5L2 10.5L3 10.5Z M14 12.5L14 11.5L15 11.5L15 12.5L14 12.5Z M2 12.5L3 12.5L3 13.5L2 13.5L2 12.5Z M2.5 15L2.5 14L3.5 14L3.5 15L2.5 15Z M4.5 15L4.5 14L5.5 14L5.5 15L4.5 15Z M14 14.5L14 13.5L15 13.5L15 14.5L14 14.5Z M7.5 14L7.5 15L6.5 15L6.5 14L7.5 14Z M8.5 14L9.5 14L9.5 15L8.5 15L8.5 14Z M10.5 15L10.5 14L11.5 14L11.5 15L10.5 15Z M13.5 14L13.5 15L12.5 15L12.5 14L13.5 14Z "/>
    </g>
</svg>
