<svg xmlns="http://www.w3.org/2000/svg" xmlns:xlink="http://www.w3.org/1999/xlink" width="1em" height="1em"
     viewBox="0 0 20 20" fill="currentcolor">
    <g opacity="1" transform="translate(0 0)  rotate(0 10 10)">
        <path id="并集" fill-rule="evenodd"
              transform="translate(1.2899999999999636 1.4224790000000667)  rotate(0 8.70999999999998 8.577520499999991)"
              opacity="1"
              d="M12.67 6.87L12.67 2.29L8.71 0L8.46 0.14L4.75 2.29L4.75 6.87L8.71 9.16L12.67 6.87Z M11.67 6.29L11.67 2.87L8.71 1.16L5.75 2.87L5.75 6.29L8.71 8L11.67 6.29Z M3.71 8.14L0 10.29L0 14.87L3.96 17.16L7.92 14.87L7.92 10.29L3.96 8L3.71 8.14Z M13.46 8L13.21 8.14L9.5 10.29L9.5 14.87L13.46 17.16L17.42 14.87L17.42 10.29L13.46 8Z M3.96 16L6.92 14.29L6.92 10.87L3.96 9.16L1 10.87L1 14.29L3.96 16Z M10.5 14.29L13.46 16L16.42 14.29L16.42 10.87L13.46 9.16L10.5 10.87L10.5 14.29Z "/>
    </g>
</svg>
