<svg xmlns="http://www.w3.org/2000/svg" xmlns:xlink="http://www.w3.org/1999/xlink" width="1em" height="1em"
     viewBox="0 0 20 20" fill="currentcolor">
    <g opacity="1" transform="translate(0 0)  rotate(0 10 10)">
        <path id="并集" fill-rule="evenodd" transform="translate(2 2.5)  rotate(0 8 7.5)" opacity="1"
              d="M6 4.5C6 4.91 5.85 5.27 5.56 5.56C5.27 5.85 4.91 6 4.5 6L1.5 6C1.09 6 0.73 5.85 0.44 5.56C0.15 5.27 0 4.91 0 4.5L0 1.5C0 1.09 0.15 0.73 0.44 0.44C0.73 0.15 1.09 0 1.5 0L4.5 0C4.91 0 5.27 0.15 5.56 0.44C5.85 0.73 6 1.09 6 1.5L6 4.5Z M1 4.5L1 1.5C1 1.36 1.05 1.25 1.15 1.15C1.25 1.05 1.36 1 1.5 1L4.5 1C4.64 1 4.75 1.05 4.85 1.15C4.95 1.25 5 1.36 5 1.5L5 4.5C5 4.64 4.95 4.75 4.85 4.85C4.75 4.95 4.64 5 4.5 5L1.5 5C1.36 5 1.25 4.95 1.15 4.85C1.05 4.75 1 4.64 1 4.5Z M8.22 1.08C8.19 1.1 8.17 1.12 8.15 1.15C8.12 1.17 8.1 1.19 8.08 1.22C8.07 1.25 8.05 1.28 8.04 1.31L8.01 1.4C8 1.43 8 1.47 8 1.5C8 1.53 8 1.57 8.01 1.6L8.04 1.69C8.05 1.72 8.07 1.75 8.08 1.78C8.1 1.81 8.12 1.83 8.15 1.85C8.17 1.88 8.19 1.9 8.22 1.92C8.25 1.93 8.28 1.95 8.31 1.96L8.4 1.99C8.43 2 8.47 2 8.5 2L15.5 2C15.53 2 15.57 2 15.6 1.99L15.69 1.96C15.72 1.95 15.75 1.93 15.78 1.92C15.81 1.9 15.83 1.88 15.85 1.85C15.88 1.83 15.9 1.81 15.92 1.78C15.93 1.75 15.95 1.72 15.96 1.69L15.99 1.6C16 1.57 16 1.53 16 1.5C16 1.47 16 1.43 15.99 1.4L15.96 1.31C15.95 1.28 15.93 1.25 15.92 1.22C15.9 1.19 15.88 1.17 15.85 1.15C15.83 1.12 15.81 1.1 15.78 1.08C15.75 1.07 15.72 1.05 15.69 1.04L15.6 1.01C15.57 1 15.53 1 15.5 1L8.5 1C8.47 1 8.43 1 8.4 1.01L8.31 1.04C8.28 1.05 8.25 1.07 8.22 1.08Z M8.04 4.69C8.05 4.72 8.07 4.75 8.08 4.78C8.1 4.81 8.12 4.83 8.15 4.85C8.17 4.88 8.19 4.9 8.22 4.92C8.25 4.93 8.28 4.95 8.31 4.96L8.4 4.99C8.43 5 8.47 5 8.5 5L15.5 5C15.53 5 15.57 5 15.6 4.99L15.69 4.96C15.72 4.95 15.75 4.93 15.78 4.92C15.81 4.9 15.83 4.88 15.85 4.85C15.88 4.83 15.9 4.81 15.92 4.78C15.93 4.75 15.95 4.72 15.96 4.69L15.99 4.6C16 4.57 16 4.53 16 4.5C16 4.47 16 4.43 15.99 4.4L15.96 4.31C15.95 4.28 15.93 4.25 15.92 4.22C15.9 4.19 15.88 4.17 15.85 4.15C15.83 4.12 15.81 4.1 15.78 4.08C15.75 4.07 15.72 4.05 15.69 4.04L15.6 4.01C15.57 4 15.53 4 15.5 4L8.5 4C8.47 4 8.43 4 8.4 4.01L8.31 4.04C8.28 4.05 8.25 4.07 8.22 4.08C8.19 4.1 8.17 4.12 8.15 4.15C8.12 4.17 8.1 4.19 8.08 4.22C8.07 4.25 8.05 4.28 8.04 4.31L8.01 4.4C8 4.43 8 4.47 8 4.5C8 4.53 8 4.57 8.01 4.6L8.04 4.69Z M0 10.5C0 10.09 0.15 9.73 0.44 9.44C0.73 9.15 1.09 9 1.5 9L4.5 9C4.91 9 5.27 9.15 5.56 9.44C5.85 9.73 6 10.09 6 10.5L6 13.5C6 13.91 5.85 14.27 5.56 14.56C5.27 14.85 4.91 15 4.5 15L1.5 15C1.09 15 0.73 14.85 0.44 14.56C0.15 14.27 0 13.91 0 13.5L0 10.5Z M1.15 10.15C1.25 10.05 1.36 10 1.5 10L4.5 10C4.64 10 4.75 10.05 4.85 10.15C4.95 10.25 5 10.36 5 10.5L5 13.5C5 13.64 4.95 13.75 4.85 13.85C4.75 13.95 4.64 14 4.5 14L1.5 14C1.36 14 1.25 13.95 1.15 13.85C1.05 13.75 1 13.64 1 13.5L1 10.5C1 10.36 1.05 10.25 1.15 10.15Z M8.04 10.69L8.01 10.6C8 10.57 8 10.53 8 10.5C8 10.47 8 10.43 8.01 10.4L8.04 10.31C8.05 10.28 8.07 10.25 8.08 10.22C8.1 10.19 8.12 10.17 8.15 10.15C8.17 10.12 8.19 10.1 8.22 10.08C8.25 10.07 8.28 10.05 8.31 10.04L8.4 10.01C8.43 10 8.47 10 8.5 10L15.5 10C15.53 10 15.57 10 15.6 10.01L15.69 10.04C15.72 10.05 15.75 10.07 15.78 10.08C15.81 10.1 15.83 10.12 15.85 10.15C15.88 10.17 15.9 10.19 15.92 10.22C15.93 10.25 15.95 10.28 15.96 10.31L15.99 10.4C16 10.43 16 10.47 16 10.5C16 10.53 16 10.57 15.99 10.6L15.96 10.69C15.95 10.72 15.93 10.75 15.92 10.78C15.9 10.81 15.88 10.83 15.85 10.85C15.83 10.88 15.81 10.9 15.78 10.92C15.75 10.93 15.72 10.95 15.69 10.96L15.6 10.99C15.57 11 15.53 11 15.5 11L8.5 11C8.47 11 8.43 11 8.4 10.99L8.31 10.96C8.28 10.95 8.25 10.93 8.22 10.92C8.19 10.9 8.17 10.88 8.15 10.85C8.12 10.83 8.1 10.81 8.08 10.78C8.07 10.75 8.05 10.72 8.04 10.69Z M8.31 13.04L8.4 13.01C8.43 13 8.47 13 8.5 13L15.5 13C15.53 13 15.57 13 15.6 13.01L15.69 13.04C15.72 13.05 15.75 13.07 15.78 13.08C15.81 13.1 15.83 13.12 15.85 13.15C15.88 13.17 15.9 13.19 15.92 13.22C15.93 13.25 15.95 13.28 15.96 13.31L15.99 13.4C16 13.43 16 13.47 16 13.5C16 13.53 16 13.57 15.99 13.6L15.96 13.69C15.95 13.72 15.93 13.75 15.92 13.78C15.9 13.81 15.88 13.83 15.85 13.85C15.83 13.88 15.81 13.9 15.78 13.92C15.75 13.93 15.72 13.95 15.69 13.96L15.6 13.99C15.57 14 15.53 14 15.5 14L8.5 14C8.47 14 8.43 14 8.4 13.99L8.31 13.96C8.28 13.95 8.25 13.93 8.22 13.92C8.19 13.9 8.17 13.88 8.15 13.85C8.12 13.83 8.1 13.81 8.08 13.78C8.07 13.75 8.05 13.72 8.04 13.69L8.01 13.6C8 13.57 8 13.53 8 13.5C8 13.47 8 13.43 8.01 13.4L8.04 13.31C8.05 13.28 8.07 13.25 8.08 13.22C8.1 13.19 8.12 13.17 8.15 13.15C8.17 13.12 8.19 13.1 8.22 13.08C8.25 13.07 8.28 13.05 8.31 13.04Z "/>
    </g>
</svg>
