<svg xmlns="http://www.w3.org/2000/svg" xmlns:xlink="http://www.w3.org/1999/xlink" width="20" height="20" viewBox="0 0 20 20" fill="none"><g opacity="1" transform="translate(0 0)  rotate(0 10 10)"><path id="分组 1" fill-rule="evenodd" style="fill:#CFD8DC" transform="translate(1.875 1.875)  rotate(0 7.974685000375157 7.974549630502163)" opacity="1" d="M6.77 13.54C8.33 13.54 9.85 13 11.05 12.01L14.81 15.77C15.08 16.02 15.5 16.01 15.75 15.75C16.01 15.49 16.02 15.08 15.77 14.81L12.01 11.05C12.97 9.89 13.54 8.4 13.54 6.77C13.54 3.03 10.51 0 6.77 0C3.03 0 0 3.03 0 6.77C0 10.51 3.03 13.54 6.77 13.54Z M12.1838 6.77375C12.1838 3.78375 9.76375 1.35375 6.77375 1.35375C3.78375 1.35375 1.35375 3.78375 1.35375 6.77375C1.35375 9.76375 3.78375 12.1838 6.77375 12.1838C9.76375 12.1838 12.1838 9.76375 12.1838 6.77375Z " /></g></svg>